<svg xmlns="http://www.w3.org/2000/svg" width="24" height="15.83" viewBox="0 0 24 15.83">
	<path d="M11.68,8.53a3.57,3.57,0,0,0-2-1.43,3.77,3.77,0,0,0,1.51-1.29,3.46,3.46,0,0,0,.5-2A4.41,4.41,0,0,0,11.32,2a3,3,0,0,0-1-1.18A4.37,4.37,0,0,0,8.88.2,8.38,8.38,0,0,0,7,0H0V15.54H7.15a7.31,7.31,0,0,0,1.93-.26,5.08,5.08,0,0,0,1.69-.81,3.88,3.88,0,0,0,1.16-1.41,4.6,4.6,0,0,0,.42-2A4.42,4.42,0,0,0,11.68,8.53ZM3.24,2.67H6.3a3.83,3.83,0,0,1,.83.07A1.76,1.76,0,0,1,7.84,3a1.22,1.22,0,0,1,.5.53,2,2,0,0,1,.18.89A1.7,1.7,0,0,1,8,5.85a2.29,2.29,0,0,1-1.43.44H3.24Zm5.69,9.18a1.61,1.61,0,0,1-.54.62,2.15,2.15,0,0,1-.76.33,3.56,3.56,0,0,1-.92.1H3.24V8.62H6.78a2.65,2.65,0,0,1,1.7.51,2.1,2.1,0,0,1,.64,1.71A2.19,2.19,0,0,1,8.93,11.85ZM24,10.66a8.47,8.47,0,0,0-.2-2.51,6.11,6.11,0,0,0-1-2.13,4.88,4.88,0,0,0-1.67-1.49A4.79,4.79,0,0,0,18.79,4a5.3,5.3,0,0,0-5.09,3.6,7,7,0,0,0-.4,2.35,6.93,6.93,0,0,0,.39,2.39,5.52,5.52,0,0,0,1.08,1.88,4.84,4.84,0,0,0,1.72,1.21,5.92,5.92,0,0,0,2.28.43A5.21,5.21,0,0,0,21.86,15a5.09,5.09,0,0,0,1.91-2.89H21.18a2,2,0,0,1-.78,1,2.52,2.52,0,0,1-1.53.47,2.52,2.52,0,0,1-1.9-.68,3.07,3.07,0,0,1-.69-2.18ZM16.26,8.72A3,3,0,0,1,16.4,8a2.38,2.38,0,0,1,.39-.8,2.75,2.75,0,0,1,.74-.62,2.46,2.46,0,0,1,1.16-.26,2.17,2.17,0,0,1,1.66.62h0A3.21,3.21,0,0,1,21,8.72ZM21.62,1h-6V2.57h6Z" fill="gainsboro"/>
</svg>
