<svg xmlns="http://www.w3.org/2000/svg" width="24" height="23.41" viewBox="0 0 24 23.41">
	<path d="M12,0a12,12,0,0,1,3.83,23.38c-.6.12-.83-.25-.83-.57s0-1.69,0-3.3a2.88,2.88,0,0,0-.81-2.22c2.67-.29,5.47-1.32,5.47-5.92a4.61,4.61,0,0,0-1.23-3.22A4.31,4.31,0,0,0,18.33,5s-1-.33-3.3,1.23a11.18,11.18,0,0,0-6,0C6.74,4.65,5.73,5,5.73,5a4.31,4.31,0,0,0-.12,3.18,4.69,4.69,0,0,0-1.23,3.22C4.38,16,7.17,17,9.84,17.3a2.51,2.51,0,0,0-.76,1.6,2.56,2.56,0,0,1-3.5-1,2.4,2.4,0,0,0-1.84-1.23c-1,0-.41.57,0,.8A4.3,4.3,0,0,1,5,19.17c.24.68,1,2,4,1.41,0,1,0,2,0,2.23s-.22.68-.82.58A12,12,0,0,1,12,0Z" fill="gainsboro"/>
</svg>
