<svg xmlns="http://www.w3.org/2000/svg" width="19.08" height="24" viewBox="0 0 19.08 24">
	<path d="M2.15,24H16.92a2.17,2.17,0,0,0,2.16-2.15V2.15A2.17,2.17,0,0,0,16.92,0H2.15A2.17,2.17,0,0,0,0,2.15v19.7A2.17,2.17,0,0,0,2.15,24ZM1.85,2.15a.29.29,0,0,1,.3-.3H16.92a.29.29,0,0,1,.22.09.27.27,0,0,1,.09.21v19.7a.27.27,0,0,1-.09.21.29.29,0,0,1-.22.09H2.15a.29.29,0,0,1-.3-.3ZM3.69,15.69a1,1,0,0,1,.93-.92H9.54a.93.93,0,0,1,0,1.85H4.62A1,1,0,0,1,3.69,15.69Zm0-4.92a.93.93,0,0,1,.93-.92h9.84a.92.92,0,1,1,0,1.84H4.62A.93.93,0,0,1,3.69,10.77Zm0-4.92h0a1,1,0,0,1,.93-.93h9.84a.93.93,0,1,1,0,1.85H4.62a1,1,0,0,1-.93-.92Z" fill="gainsboro"/>
</svg>
