<svg xmlns="http://www.w3.org/2000/svg" width="24" height="21.46" viewBox="0 0 24 21.46">
	<path d="M14.71,21.46A15.19,15.19,0,0,1,0,10.12a.74.74,0,0,1,.53-.9.73.73,0,0,1,.89.53A13.72,13.72,0,0,0,14.71,20a.74.74,0,0,1,0,1.47Z" fill="gainsboro"/>
	<path d="M23.57,9.85,18.78,7.7l4.78-2.13A.73.73,0,1,0,23,4.23L16.69,7a.74.74,0,0,0-.37.37.73.73,0,0,0,.37,1L23,11.18a.63.63,0,0,0,.3.07.73.73,0,0,0,.3-1.4ZM12.18,0a.73.73,0,0,0-.73.73V14.64a.74.74,0,0,0,1.47,0V.73A.74.74,0,0,0,12.18,0Z" fill="gainsboro"/>
</svg>
